<mxfile host="app.diagrams.net" modified="2022-05-03T06:50:31.636Z" agent="5.0 (Windows)" etag="gRakFtAPr8yetzH1UPO4" version="16.6.6" type="github">
  <diagram id="C5RBs43oDa-KdzZeNtuy" name="Page-1">
    <mxGraphModel dx="2500" dy="2054" grid="1" gridSize="10" guides="1" tooltips="1" connect="1" arrows="1" fold="1" page="1" pageScale="1" pageWidth="827" pageHeight="1169" math="0" shadow="0">
      <root>
        <mxCell id="WIyWlLk6GJQsqaUBKTNV-0" />
        <mxCell id="WIyWlLk6GJQsqaUBKTNV-1" parent="WIyWlLk6GJQsqaUBKTNV-0" />
        <mxCell id="WIyWlLk6GJQsqaUBKTNV-2" value="" style="rounded=0;html=1;jettySize=auto;orthogonalLoop=1;fontSize=11;endArrow=block;endFill=0;endSize=8;strokeWidth=1;shadow=0;labelBackgroundColor=none;edgeStyle=orthogonalEdgeStyle;entryX=0.5;entryY=0;entryDx=0;entryDy=0;" parent="WIyWlLk6GJQsqaUBKTNV-1" source="WIyWlLk6GJQsqaUBKTNV-3" target="cNhiEKaSum9n6L0KhR6a-0" edge="1">
          <mxGeometry relative="1" as="geometry">
            <mxPoint x="220" y="170" as="targetPoint" />
          </mxGeometry>
        </mxCell>
        <mxCell id="WIyWlLk6GJQsqaUBKTNV-3" value="Setup the values" style="rounded=1;whiteSpace=wrap;html=1;fontSize=12;glass=0;strokeWidth=1;shadow=0;" parent="WIyWlLk6GJQsqaUBKTNV-1" vertex="1">
          <mxGeometry x="160" y="50" width="150" height="70" as="geometry" />
        </mxCell>
        <mxCell id="cNhiEKaSum9n6L0KhR6a-47" style="edgeStyle=orthogonalEdgeStyle;rounded=0;orthogonalLoop=1;jettySize=auto;html=1;exitX=0.25;exitY=1;exitDx=0;exitDy=0;entryX=1;entryY=0.5;entryDx=0;entryDy=0;" edge="1" parent="WIyWlLk6GJQsqaUBKTNV-1" source="cNhiEKaSum9n6L0KhR6a-0" target="cNhiEKaSum9n6L0KhR6a-23">
          <mxGeometry relative="1" as="geometry" />
        </mxCell>
        <mxCell id="cNhiEKaSum9n6L0KhR6a-83" style="edgeStyle=orthogonalEdgeStyle;rounded=0;orthogonalLoop=1;jettySize=auto;html=1;exitX=0.75;exitY=1;exitDx=0;exitDy=0;entryX=0.5;entryY=0;entryDx=0;entryDy=0;" edge="1" parent="WIyWlLk6GJQsqaUBKTNV-1" source="cNhiEKaSum9n6L0KhR6a-0" target="cNhiEKaSum9n6L0KhR6a-1">
          <mxGeometry relative="1" as="geometry">
            <mxPoint x="290" y="380" as="targetPoint" />
          </mxGeometry>
        </mxCell>
        <mxCell id="cNhiEKaSum9n6L0KhR6a-0" value="MAIN LOOP" style="shape=parallelogram;perimeter=parallelogramPerimeter;whiteSpace=wrap;html=1;fixedSize=1;" vertex="1" parent="WIyWlLk6GJQsqaUBKTNV-1">
          <mxGeometry x="120" y="220" width="200" height="120" as="geometry" />
        </mxCell>
        <mxCell id="cNhiEKaSum9n6L0KhR6a-4" value="Yes" style="edgeStyle=orthogonalEdgeStyle;rounded=0;orthogonalLoop=1;jettySize=auto;html=1;exitX=1;exitY=0.5;exitDx=0;exitDy=0;entryX=0;entryY=0.5;entryDx=0;entryDy=0;" edge="1" parent="WIyWlLk6GJQsqaUBKTNV-1" source="cNhiEKaSum9n6L0KhR6a-1" target="cNhiEKaSum9n6L0KhR6a-6">
          <mxGeometry relative="1" as="geometry">
            <mxPoint x="400" y="485" as="targetPoint" />
          </mxGeometry>
        </mxCell>
        <mxCell id="cNhiEKaSum9n6L0KhR6a-81" value="No" style="edgeStyle=orthogonalEdgeStyle;rounded=0;orthogonalLoop=1;jettySize=auto;html=1;exitX=0;exitY=0;exitDx=0;exitDy=0;" edge="1" parent="WIyWlLk6GJQsqaUBKTNV-1" source="cNhiEKaSum9n6L0KhR6a-1" target="cNhiEKaSum9n6L0KhR6a-0">
          <mxGeometry relative="1" as="geometry">
            <Array as="points">
              <mxPoint x="240" y="430" />
              <mxPoint x="220" y="430" />
            </Array>
          </mxGeometry>
        </mxCell>
        <mxCell id="cNhiEKaSum9n6L0KhR6a-1" value="&lt;div&gt;Interrupt check the RPM.&lt;/div&gt;&lt;div&gt;Is time to perform speed measurement at given time spread?&lt;br&gt;&lt;/div&gt;" style="rhombus;whiteSpace=wrap;html=1;" vertex="1" parent="WIyWlLk6GJQsqaUBKTNV-1">
          <mxGeometry x="190" y="385" width="200" height="200" as="geometry" />
        </mxCell>
        <mxCell id="cNhiEKaSum9n6L0KhR6a-20" value="Yes" style="edgeStyle=orthogonalEdgeStyle;rounded=0;orthogonalLoop=1;jettySize=auto;html=1;exitX=1;exitY=0.5;exitDx=0;exitDy=0;entryX=0;entryY=0.5;entryDx=0;entryDy=0;" edge="1" parent="WIyWlLk6GJQsqaUBKTNV-1" source="cNhiEKaSum9n6L0KhR6a-6" target="cNhiEKaSum9n6L0KhR6a-10">
          <mxGeometry relative="1" as="geometry" />
        </mxCell>
        <mxCell id="cNhiEKaSum9n6L0KhR6a-72" value="No" style="edgeStyle=orthogonalEdgeStyle;rounded=0;orthogonalLoop=1;jettySize=auto;html=1;" edge="1" parent="WIyWlLk6GJQsqaUBKTNV-1" source="cNhiEKaSum9n6L0KhR6a-6" target="cNhiEKaSum9n6L0KhR6a-69">
          <mxGeometry relative="1" as="geometry" />
        </mxCell>
        <mxCell id="cNhiEKaSum9n6L0KhR6a-6" value="Has been the read succesful?" style="rhombus;whiteSpace=wrap;html=1;" vertex="1" parent="WIyWlLk6GJQsqaUBKTNV-1">
          <mxGeometry x="430" y="420" width="130" height="130" as="geometry" />
        </mxCell>
        <mxCell id="cNhiEKaSum9n6L0KhR6a-21" style="edgeStyle=orthogonalEdgeStyle;rounded=0;orthogonalLoop=1;jettySize=auto;html=1;exitX=1;exitY=0.5;exitDx=0;exitDy=0;entryX=0;entryY=0.5;entryDx=0;entryDy=0;" edge="1" parent="WIyWlLk6GJQsqaUBKTNV-1" target="cNhiEKaSum9n6L0KhR6a-11">
          <mxGeometry relative="1" as="geometry">
            <mxPoint x="810.09" y="484.99999999999955" as="sourcePoint" />
          </mxGeometry>
        </mxCell>
        <mxCell id="cNhiEKaSum9n6L0KhR6a-73" value="No" style="edgeStyle=orthogonalEdgeStyle;rounded=0;orthogonalLoop=1;jettySize=auto;html=1;" edge="1" parent="WIyWlLk6GJQsqaUBKTNV-1" source="cNhiEKaSum9n6L0KhR6a-10" target="cNhiEKaSum9n6L0KhR6a-70">
          <mxGeometry relative="1" as="geometry" />
        </mxCell>
        <mxCell id="cNhiEKaSum9n6L0KhR6a-78" value="Yes" style="edgeStyle=orthogonalEdgeStyle;rounded=0;orthogonalLoop=1;jettySize=auto;html=1;" edge="1" parent="WIyWlLk6GJQsqaUBKTNV-1" source="cNhiEKaSum9n6L0KhR6a-10" target="cNhiEKaSum9n6L0KhR6a-11">
          <mxGeometry relative="1" as="geometry" />
        </mxCell>
        <mxCell id="cNhiEKaSum9n6L0KhR6a-10" value="Is interval gotten zero?" style="rhombus;whiteSpace=wrap;html=1;" vertex="1" parent="WIyWlLk6GJQsqaUBKTNV-1">
          <mxGeometry x="630" y="420" width="130" height="130" as="geometry" />
        </mxCell>
        <mxCell id="cNhiEKaSum9n6L0KhR6a-68" style="edgeStyle=orthogonalEdgeStyle;rounded=0;orthogonalLoop=1;jettySize=auto;html=1;exitX=0.5;exitY=0;exitDx=0;exitDy=0;entryX=0.5;entryY=1;entryDx=0;entryDy=0;" edge="1" parent="WIyWlLk6GJQsqaUBKTNV-1" source="cNhiEKaSum9n6L0KhR6a-11" target="cNhiEKaSum9n6L0KhR6a-12">
          <mxGeometry relative="1" as="geometry">
            <mxPoint x="900.09" y="280" as="targetPoint" />
          </mxGeometry>
        </mxCell>
        <mxCell id="cNhiEKaSum9n6L0KhR6a-11" value="&lt;div&gt;Do the revolution ship calculation&lt;/div&gt;" style="whiteSpace=wrap;html=1;aspect=fixed;" vertex="1" parent="WIyWlLk6GJQsqaUBKTNV-1">
          <mxGeometry x="830.09" y="435" width="100" height="100" as="geometry" />
        </mxCell>
        <mxCell id="cNhiEKaSum9n6L0KhR6a-15" style="edgeStyle=orthogonalEdgeStyle;rounded=0;orthogonalLoop=1;jettySize=auto;html=1;exitX=0;exitY=0;exitDx=0;exitDy=0;entryX=1;entryY=0.5;entryDx=0;entryDy=0;" edge="1" parent="WIyWlLk6GJQsqaUBKTNV-1" source="cNhiEKaSum9n6L0KhR6a-12" target="cNhiEKaSum9n6L0KhR6a-14">
          <mxGeometry relative="1" as="geometry" />
        </mxCell>
        <mxCell id="cNhiEKaSum9n6L0KhR6a-16" value="&lt;div&gt;Yes&lt;/div&gt;" style="edgeLabel;html=1;align=center;verticalAlign=middle;resizable=0;points=[];" vertex="1" connectable="0" parent="cNhiEKaSum9n6L0KhR6a-15">
          <mxGeometry x="-0.287" y="2" relative="1" as="geometry">
            <mxPoint x="-25" y="-2" as="offset" />
          </mxGeometry>
        </mxCell>
        <mxCell id="cNhiEKaSum9n6L0KhR6a-18" style="edgeStyle=orthogonalEdgeStyle;rounded=0;orthogonalLoop=1;jettySize=auto;html=1;exitX=0;exitY=1;exitDx=0;exitDy=0;entryX=1;entryY=0.5;entryDx=0;entryDy=0;" edge="1" parent="WIyWlLk6GJQsqaUBKTNV-1" source="cNhiEKaSum9n6L0KhR6a-12" target="cNhiEKaSum9n6L0KhR6a-17">
          <mxGeometry relative="1" as="geometry">
            <mxPoint x="660" y="240" as="targetPoint" />
            <Array as="points">
              <mxPoint x="738" y="265" />
            </Array>
          </mxGeometry>
        </mxCell>
        <mxCell id="cNhiEKaSum9n6L0KhR6a-19" value="No" style="edgeLabel;html=1;align=center;verticalAlign=middle;resizable=0;points=[];" vertex="1" connectable="0" parent="cNhiEKaSum9n6L0KhR6a-18">
          <mxGeometry x="0.1625" y="1" relative="1" as="geometry">
            <mxPoint x="-1" y="-1" as="offset" />
          </mxGeometry>
        </mxCell>
        <mxCell id="cNhiEKaSum9n6L0KhR6a-12" value="Is RPM over 0?" style="rhombus;whiteSpace=wrap;html=1;" vertex="1" parent="WIyWlLk6GJQsqaUBKTNV-1">
          <mxGeometry x="815.09" y="140" width="130" height="130" as="geometry" />
        </mxCell>
        <mxCell id="cNhiEKaSum9n6L0KhR6a-66" style="edgeStyle=orthogonalEdgeStyle;rounded=0;orthogonalLoop=1;jettySize=auto;html=1;entryX=1;entryY=0.25;entryDx=0;entryDy=0;" edge="1" parent="WIyWlLk6GJQsqaUBKTNV-1" source="cNhiEKaSum9n6L0KhR6a-14" target="cNhiEKaSum9n6L0KhR6a-0">
          <mxGeometry relative="1" as="geometry">
            <Array as="points">
              <mxPoint x="370" y="173" />
              <mxPoint x="370" y="252" />
            </Array>
          </mxGeometry>
        </mxCell>
        <mxCell id="cNhiEKaSum9n6L0KhR6a-14" value="Output the RPM" style="shape=parallelogram;perimeter=parallelogramPerimeter;whiteSpace=wrap;html=1;fixedSize=1;" vertex="1" parent="WIyWlLk6GJQsqaUBKTNV-1">
          <mxGeometry x="430" y="157.5" width="200" height="30" as="geometry" />
        </mxCell>
        <mxCell id="cNhiEKaSum9n6L0KhR6a-67" style="edgeStyle=orthogonalEdgeStyle;rounded=0;orthogonalLoop=1;jettySize=auto;html=1;entryX=1;entryY=0.25;entryDx=0;entryDy=0;" edge="1" parent="WIyWlLk6GJQsqaUBKTNV-1" source="cNhiEKaSum9n6L0KhR6a-17" target="cNhiEKaSum9n6L0KhR6a-0">
          <mxGeometry relative="1" as="geometry">
            <Array as="points">
              <mxPoint x="370" y="265" />
              <mxPoint x="370" y="252" />
            </Array>
          </mxGeometry>
        </mxCell>
        <mxCell id="cNhiEKaSum9n6L0KhR6a-17" value="Output the failure to read RPM" style="shape=parallelogram;perimeter=parallelogramPerimeter;whiteSpace=wrap;html=1;fixedSize=1;" vertex="1" parent="WIyWlLk6GJQsqaUBKTNV-1">
          <mxGeometry x="420" y="250" width="194" height="30" as="geometry" />
        </mxCell>
        <mxCell id="cNhiEKaSum9n6L0KhR6a-48" value="Yes" style="edgeStyle=orthogonalEdgeStyle;rounded=0;orthogonalLoop=1;jettySize=auto;html=1;" edge="1" parent="WIyWlLk6GJQsqaUBKTNV-1" source="cNhiEKaSum9n6L0KhR6a-23" target="cNhiEKaSum9n6L0KhR6a-24">
          <mxGeometry relative="1" as="geometry" />
        </mxCell>
        <mxCell id="cNhiEKaSum9n6L0KhR6a-77" value="No" style="edgeStyle=orthogonalEdgeStyle;rounded=0;orthogonalLoop=1;jettySize=auto;html=1;entryX=0;entryY=0.5;entryDx=0;entryDy=0;" edge="1" parent="WIyWlLk6GJQsqaUBKTNV-1" source="cNhiEKaSum9n6L0KhR6a-23" target="cNhiEKaSum9n6L0KhR6a-29">
          <mxGeometry x="-0.9342" relative="1" as="geometry">
            <Array as="points">
              <mxPoint x="90" y="540" />
              <mxPoint x="-500" y="540" />
              <mxPoint x="-500" y="318" />
            </Array>
            <mxPoint y="-1" as="offset" />
          </mxGeometry>
        </mxCell>
        <mxCell id="cNhiEKaSum9n6L0KhR6a-23" value="Is motor turned on?" style="rhombus;whiteSpace=wrap;html=1;" vertex="1" parent="WIyWlLk6GJQsqaUBKTNV-1">
          <mxGeometry x="50" y="400" width="80" height="80" as="geometry" />
        </mxCell>
        <mxCell id="cNhiEKaSum9n6L0KhR6a-49" value="" style="edgeStyle=orthogonalEdgeStyle;rounded=0;orthogonalLoop=1;jettySize=auto;html=1;" edge="1" parent="WIyWlLk6GJQsqaUBKTNV-1" source="cNhiEKaSum9n6L0KhR6a-24" target="cNhiEKaSum9n6L0KhR6a-26">
          <mxGeometry relative="1" as="geometry" />
        </mxCell>
        <mxCell id="cNhiEKaSum9n6L0KhR6a-24" value="Read the potentiometer value" style="whiteSpace=wrap;html=1;aspect=fixed;" vertex="1" parent="WIyWlLk6GJQsqaUBKTNV-1">
          <mxGeometry x="-80" y="400" width="80" height="80" as="geometry" />
        </mxCell>
        <mxCell id="cNhiEKaSum9n6L0KhR6a-50" value="" style="edgeStyle=orthogonalEdgeStyle;rounded=0;orthogonalLoop=1;jettySize=auto;html=1;" edge="1" parent="WIyWlLk6GJQsqaUBKTNV-1" source="cNhiEKaSum9n6L0KhR6a-26" target="cNhiEKaSum9n6L0KhR6a-27">
          <mxGeometry relative="1" as="geometry" />
        </mxCell>
        <mxCell id="cNhiEKaSum9n6L0KhR6a-26" value="Map the value to base 8_uint value" style="whiteSpace=wrap;html=1;aspect=fixed;" vertex="1" parent="WIyWlLk6GJQsqaUBKTNV-1">
          <mxGeometry x="-220" y="400" width="80" height="80" as="geometry" />
        </mxCell>
        <mxCell id="cNhiEKaSum9n6L0KhR6a-51" style="edgeStyle=orthogonalEdgeStyle;rounded=0;orthogonalLoop=1;jettySize=auto;html=1;exitX=0;exitY=0.5;exitDx=0;exitDy=0;entryX=0.5;entryY=1;entryDx=0;entryDy=0;" edge="1" parent="WIyWlLk6GJQsqaUBKTNV-1" source="cNhiEKaSum9n6L0KhR6a-27" target="cNhiEKaSum9n6L0KhR6a-29">
          <mxGeometry relative="1" as="geometry" />
        </mxCell>
        <mxCell id="cNhiEKaSum9n6L0KhR6a-27" value="Control the motor" style="whiteSpace=wrap;html=1;aspect=fixed;" vertex="1" parent="WIyWlLk6GJQsqaUBKTNV-1">
          <mxGeometry x="-360" y="400" width="80" height="80" as="geometry" />
        </mxCell>
        <mxCell id="cNhiEKaSum9n6L0KhR6a-39" style="edgeStyle=orthogonalEdgeStyle;rounded=0;orthogonalLoop=1;jettySize=auto;html=1;exitX=1;exitY=0.5;exitDx=0;exitDy=0;entryX=0;entryY=0.5;entryDx=0;entryDy=0;" edge="1" parent="WIyWlLk6GJQsqaUBKTNV-1" source="cNhiEKaSum9n6L0KhR6a-28" target="cNhiEKaSum9n6L0KhR6a-0">
          <mxGeometry relative="1" as="geometry">
            <Array as="points">
              <mxPoint x="90" y="85" />
              <mxPoint x="90" y="280" />
            </Array>
          </mxGeometry>
        </mxCell>
        <mxCell id="cNhiEKaSum9n6L0KhR6a-40" value="&lt;div&gt;No&lt;/div&gt;" style="edgeLabel;html=1;align=center;verticalAlign=middle;resizable=0;points=[];" vertex="1" connectable="0" parent="cNhiEKaSum9n6L0KhR6a-39">
          <mxGeometry x="-0.5723" relative="1" as="geometry">
            <mxPoint as="offset" />
          </mxGeometry>
        </mxCell>
        <mxCell id="cNhiEKaSum9n6L0KhR6a-43" value="&lt;div&gt;Yes&lt;/div&gt;" style="edgeStyle=orthogonalEdgeStyle;rounded=0;orthogonalLoop=1;jettySize=auto;html=1;exitX=0.5;exitY=1;exitDx=0;exitDy=0;entryX=0.5;entryY=0;entryDx=0;entryDy=0;" edge="1" parent="WIyWlLk6GJQsqaUBKTNV-1" source="cNhiEKaSum9n6L0KhR6a-28" target="cNhiEKaSum9n6L0KhR6a-41">
          <mxGeometry relative="1" as="geometry" />
        </mxCell>
        <mxCell id="cNhiEKaSum9n6L0KhR6a-28" value="Is direction button pressed? " style="rhombus;whiteSpace=wrap;html=1;" vertex="1" parent="WIyWlLk6GJQsqaUBKTNV-1">
          <mxGeometry x="-245" y="20" width="130" height="130" as="geometry" />
        </mxCell>
        <mxCell id="cNhiEKaSum9n6L0KhR6a-32" value="Yes" style="edgeStyle=orthogonalEdgeStyle;rounded=0;orthogonalLoop=1;jettySize=auto;html=1;exitX=0.5;exitY=0;exitDx=0;exitDy=0;entryX=0.5;entryY=1;entryDx=0;entryDy=0;" edge="1" parent="WIyWlLk6GJQsqaUBKTNV-1" source="cNhiEKaSum9n6L0KhR6a-29" target="cNhiEKaSum9n6L0KhR6a-31">
          <mxGeometry relative="1" as="geometry" />
        </mxCell>
        <mxCell id="cNhiEKaSum9n6L0KhR6a-34" value="No" style="edgeStyle=orthogonalEdgeStyle;rounded=0;orthogonalLoop=1;jettySize=auto;html=1;exitX=1;exitY=0.5;exitDx=0;exitDy=0;entryX=0;entryY=0.5;entryDx=0;entryDy=0;" edge="1" parent="WIyWlLk6GJQsqaUBKTNV-1" source="cNhiEKaSum9n6L0KhR6a-29" target="cNhiEKaSum9n6L0KhR6a-28">
          <mxGeometry relative="1" as="geometry" />
        </mxCell>
        <mxCell id="cNhiEKaSum9n6L0KhR6a-29" value="&lt;div&gt;Is power button pressed? &lt;/div&gt;" style="rhombus;whiteSpace=wrap;html=1;" vertex="1" parent="WIyWlLk6GJQsqaUBKTNV-1">
          <mxGeometry x="-460" y="255" width="130" height="125" as="geometry" />
        </mxCell>
        <mxCell id="cNhiEKaSum9n6L0KhR6a-33" value="No" style="edgeStyle=orthogonalEdgeStyle;rounded=0;orthogonalLoop=1;jettySize=auto;html=1;exitX=0.5;exitY=0;exitDx=0;exitDy=0;entryX=1;entryY=0.5;entryDx=0;entryDy=0;" edge="1" parent="WIyWlLk6GJQsqaUBKTNV-1" source="cNhiEKaSum9n6L0KhR6a-31" target="cNhiEKaSum9n6L0KhR6a-57">
          <mxGeometry x="0.4286" relative="1" as="geometry">
            <mxPoint x="-395" y="90" as="targetPoint" />
            <mxPoint as="offset" />
          </mxGeometry>
        </mxCell>
        <mxCell id="cNhiEKaSum9n6L0KhR6a-55" value="Yes" style="edgeStyle=orthogonalEdgeStyle;rounded=0;orthogonalLoop=1;jettySize=auto;html=1;exitX=0;exitY=0.5;exitDx=0;exitDy=0;entryX=1;entryY=0.5;entryDx=0;entryDy=0;" edge="1" parent="WIyWlLk6GJQsqaUBKTNV-1" source="cNhiEKaSum9n6L0KhR6a-31">
          <mxGeometry relative="1" as="geometry">
            <mxPoint x="-510" y="180" as="targetPoint" />
          </mxGeometry>
        </mxCell>
        <mxCell id="cNhiEKaSum9n6L0KhR6a-31" value="Is it turned on?" style="rhombus;whiteSpace=wrap;html=1;" vertex="1" parent="WIyWlLk6GJQsqaUBKTNV-1">
          <mxGeometry x="-435" y="140" width="80" height="80" as="geometry" />
        </mxCell>
        <mxCell id="cNhiEKaSum9n6L0KhR6a-37" value="" style="edgeStyle=orthogonalEdgeStyle;rounded=0;orthogonalLoop=1;jettySize=auto;html=1;entryX=0;entryY=0.5;entryDx=0;entryDy=0;exitX=1;exitY=0.5;exitDx=0;exitDy=0;" edge="1" parent="WIyWlLk6GJQsqaUBKTNV-1" source="cNhiEKaSum9n6L0KhR6a-35" target="cNhiEKaSum9n6L0KhR6a-0">
          <mxGeometry relative="1" as="geometry">
            <mxPoint x="-95" y="215" as="targetPoint" />
            <Array as="points">
              <mxPoint x="-60" y="300" />
              <mxPoint x="-60" y="280" />
            </Array>
          </mxGeometry>
        </mxCell>
        <mxCell id="cNhiEKaSum9n6L0KhR6a-35" value="Jump start the engine" style="whiteSpace=wrap;html=1;aspect=fixed;rotation=0;" vertex="1" parent="WIyWlLk6GJQsqaUBKTNV-1">
          <mxGeometry x="-220" y="260" width="80" height="80" as="geometry" />
        </mxCell>
        <mxCell id="cNhiEKaSum9n6L0KhR6a-44" value="" style="edgeStyle=orthogonalEdgeStyle;rounded=0;orthogonalLoop=1;jettySize=auto;html=1;" edge="1" parent="WIyWlLk6GJQsqaUBKTNV-1" source="cNhiEKaSum9n6L0KhR6a-41" target="cNhiEKaSum9n6L0KhR6a-35">
          <mxGeometry relative="1" as="geometry" />
        </mxCell>
        <mxCell id="cNhiEKaSum9n6L0KhR6a-41" value="Change the direction" style="shape=parallelogram;perimeter=parallelogramPerimeter;whiteSpace=wrap;html=1;fixedSize=1;" vertex="1" parent="WIyWlLk6GJQsqaUBKTNV-1">
          <mxGeometry x="-232.5" y="187.5" width="105" height="35" as="geometry" />
        </mxCell>
        <mxCell id="cNhiEKaSum9n6L0KhR6a-54" style="edgeStyle=orthogonalEdgeStyle;rounded=0;orthogonalLoop=1;jettySize=auto;html=1;exitX=0;exitY=0.5;exitDx=0;exitDy=0;entryX=1;entryY=0.5;entryDx=0;entryDy=0;" edge="1" parent="WIyWlLk6GJQsqaUBKTNV-1" target="cNhiEKaSum9n6L0KhR6a-53">
          <mxGeometry relative="1" as="geometry">
            <mxPoint x="-590" y="180" as="sourcePoint" />
          </mxGeometry>
        </mxCell>
        <mxCell id="cNhiEKaSum9n6L0KhR6a-53" value="Change state to off" style="shape=parallelogram;perimeter=parallelogramPerimeter;whiteSpace=wrap;html=1;fixedSize=1;" vertex="1" parent="WIyWlLk6GJQsqaUBKTNV-1">
          <mxGeometry x="-770" y="165" width="130" height="30" as="geometry" />
        </mxCell>
        <mxCell id="cNhiEKaSum9n6L0KhR6a-56" style="edgeStyle=orthogonalEdgeStyle;rounded=0;orthogonalLoop=1;jettySize=auto;html=1;exitX=0;exitY=0.5;exitDx=0;exitDy=0;entryX=1;entryY=0.5;entryDx=0;entryDy=0;" edge="1" parent="WIyWlLk6GJQsqaUBKTNV-1" source="cNhiEKaSum9n6L0KhR6a-57" target="cNhiEKaSum9n6L0KhR6a-58">
          <mxGeometry relative="1" as="geometry" />
        </mxCell>
        <mxCell id="cNhiEKaSum9n6L0KhR6a-57" value="Power on" style="whiteSpace=wrap;html=1;aspect=fixed;" vertex="1" parent="WIyWlLk6GJQsqaUBKTNV-1">
          <mxGeometry x="-580" y="30" width="80" height="80" as="geometry" />
        </mxCell>
        <mxCell id="cNhiEKaSum9n6L0KhR6a-58" value="Change state to off" style="shape=parallelogram;perimeter=parallelogramPerimeter;whiteSpace=wrap;html=1;fixedSize=1;" vertex="1" parent="WIyWlLk6GJQsqaUBKTNV-1">
          <mxGeometry x="-760" y="55" width="130" height="30" as="geometry" />
        </mxCell>
        <mxCell id="cNhiEKaSum9n6L0KhR6a-63" value="" style="edgeStyle=orthogonalEdgeStyle;rounded=0;orthogonalLoop=1;jettySize=auto;html=1;" edge="1" parent="WIyWlLk6GJQsqaUBKTNV-1" source="cNhiEKaSum9n6L0KhR6a-59" target="cNhiEKaSum9n6L0KhR6a-60">
          <mxGeometry relative="1" as="geometry" />
        </mxCell>
        <mxCell id="cNhiEKaSum9n6L0KhR6a-59" value="Power off" style="whiteSpace=wrap;html=1;aspect=fixed;" vertex="1" parent="WIyWlLk6GJQsqaUBKTNV-1">
          <mxGeometry x="-580" y="140" width="80" height="80" as="geometry" />
        </mxCell>
        <mxCell id="cNhiEKaSum9n6L0KhR6a-65" style="edgeStyle=orthogonalEdgeStyle;rounded=0;orthogonalLoop=1;jettySize=auto;html=1;entryX=0.5;entryY=0;entryDx=0;entryDy=0;" edge="1" parent="WIyWlLk6GJQsqaUBKTNV-1" source="cNhiEKaSum9n6L0KhR6a-60" target="cNhiEKaSum9n6L0KhR6a-28">
          <mxGeometry relative="1" as="geometry">
            <mxPoint x="-340" y="70" as="targetPoint" />
            <Array as="points">
              <mxPoint x="-780" y="180" />
              <mxPoint x="-780" />
              <mxPoint x="-180" />
            </Array>
          </mxGeometry>
        </mxCell>
        <mxCell id="cNhiEKaSum9n6L0KhR6a-60" value="Change state to off" style="shape=parallelogram;perimeter=parallelogramPerimeter;whiteSpace=wrap;html=1;fixedSize=1;" vertex="1" parent="WIyWlLk6GJQsqaUBKTNV-1">
          <mxGeometry x="-770" y="165" width="130" height="30" as="geometry" />
        </mxCell>
        <mxCell id="cNhiEKaSum9n6L0KhR6a-64" style="edgeStyle=orthogonalEdgeStyle;rounded=0;orthogonalLoop=1;jettySize=auto;html=1;exitX=0;exitY=0.5;exitDx=0;exitDy=0;entryX=0.5;entryY=0;entryDx=0;entryDy=0;" edge="1" parent="WIyWlLk6GJQsqaUBKTNV-1" source="cNhiEKaSum9n6L0KhR6a-61" target="cNhiEKaSum9n6L0KhR6a-28">
          <mxGeometry relative="1" as="geometry">
            <mxPoint x="-320" y="60" as="targetPoint" />
            <Array as="points">
              <mxPoint x="-780" y="70" />
              <mxPoint x="-780" />
              <mxPoint x="-180" />
            </Array>
          </mxGeometry>
        </mxCell>
        <mxCell id="cNhiEKaSum9n6L0KhR6a-61" value="Change state to on" style="shape=parallelogram;perimeter=parallelogramPerimeter;whiteSpace=wrap;html=1;fixedSize=1;" vertex="1" parent="WIyWlLk6GJQsqaUBKTNV-1">
          <mxGeometry x="-760" y="55" width="130" height="30" as="geometry" />
        </mxCell>
        <mxCell id="cNhiEKaSum9n6L0KhR6a-75" style="edgeStyle=orthogonalEdgeStyle;rounded=0;orthogonalLoop=1;jettySize=auto;html=1;entryX=0.5;entryY=1;entryDx=0;entryDy=0;" edge="1" parent="WIyWlLk6GJQsqaUBKTNV-1" source="cNhiEKaSum9n6L0KhR6a-69" target="cNhiEKaSum9n6L0KhR6a-12">
          <mxGeometry relative="1" as="geometry">
            <Array as="points">
              <mxPoint x="495" y="320" />
              <mxPoint x="880" y="320" />
            </Array>
          </mxGeometry>
        </mxCell>
        <mxCell id="cNhiEKaSum9n6L0KhR6a-69" value="Output -1" style="shape=parallelogram;perimeter=parallelogramPerimeter;whiteSpace=wrap;html=1;fixedSize=1;" vertex="1" parent="WIyWlLk6GJQsqaUBKTNV-1">
          <mxGeometry x="446" y="350" width="98" height="30" as="geometry" />
        </mxCell>
        <mxCell id="cNhiEKaSum9n6L0KhR6a-74" style="edgeStyle=orthogonalEdgeStyle;rounded=0;orthogonalLoop=1;jettySize=auto;html=1;exitX=1;exitY=0.5;exitDx=0;exitDy=0;" edge="1" parent="WIyWlLk6GJQsqaUBKTNV-1" source="cNhiEKaSum9n6L0KhR6a-70" target="cNhiEKaSum9n6L0KhR6a-12">
          <mxGeometry relative="1" as="geometry">
            <mxPoint x="780.09" y="365.00000000000045" as="sourcePoint" />
          </mxGeometry>
        </mxCell>
        <mxCell id="cNhiEKaSum9n6L0KhR6a-70" value="Output 1" style="shape=parallelogram;perimeter=parallelogramPerimeter;whiteSpace=wrap;html=1;fixedSize=1;" vertex="1" parent="WIyWlLk6GJQsqaUBKTNV-1">
          <mxGeometry x="648" y="350" width="94" height="30" as="geometry" />
        </mxCell>
      </root>
    </mxGraphModel>
  </diagram>
</mxfile>
